<?xml version="1.0" encoding="UTF-8" standalone="no"?>
<!DOCTYPE svg PUBLIC "-//W3C//DTD SVG 1.1//EN" "http://www.w3.org/Graphics/SVG/1.1/DTD/svg11.dtd">
<svg version="1.1" xmlns="http://www.w3.org/2000/svg" xmlns:xlink="http://www.w3.org/1999/xlink" preserveAspectRatio="xMidYMid meet" viewBox="-1 -1 643.9999999999999 517.9988063937395" width="1200" height="963.75"><defs><path d="M440.73 100.81C440.73 148.55 390.77 187.25 329.14 187.25C267.51 187.25 217.55 148.55 217.55 100.81C217.55 53.06 267.51 14.36 329.14 14.36C390.77 14.36 440.73 53.06 440.73 100.81Z" id="d4ono9XEzi"></path><linearGradient id="gradienta3igLCvmOX" gradientUnits="userSpaceOnUse" x1="329.14" y1="187.26" x2="329.14" y2="14.36"><stop style="stop-color: #808080;stop-opacity: 0.25" offset="0%"></stop><stop style="stop-color: #808080;stop-opacity: 0.12" offset="54%"></stop><stop style="stop-color: #808080;stop-opacity: 0.1" offset="100%"></stop></linearGradient><path d="M438.26 100.81C438.26 147.49 389.4 185.33 329.14 185.33C268.88 185.33 220.03 147.49 220.03 100.81C220.03 54.12 268.88 16.28 329.14 16.28C389.4 16.28 438.26 54.12 438.26 100.81Z" id="k43rBG8U9t"></path><path d="M346.77 25.67C365.48 25.57 384 29.4 401.14 36.9C381.97 23.95 356.88 16.07 329.42 16.07C269.16 16.07 220.3 53.92 220.3 100.6C220.3 131.95 242.33 159.31 275.06 173.9C252.14 158.41 237.67 135.62 237.67 110.2C237.67 63.52 286.51 25.67 346.77 25.67Z" id="b5U38pIV1E"></path><path d="M450.1 304.5L571.06 514L329.14 514L87.22 514L208.18 304.5L329.14 94.99L329.14 94.99L450.1 304.5Z" id="b2gVzoEAyC"></path><path d="M420.98 364.01C416.87 364.01 413.54 367.34 413.54 371.44C413.54 375.55 416.87 378.88 420.98 378.88C425.08 378.88 428.41 375.55 428.41 371.44C428.41 367.34 425.08 364.01 420.98 364.01Z" id="b2Rfl9fjdY"></path><path d="M444.53 356.03C442.48 356.03 440.82 357.69 440.82 359.75C440.82 361.8 442.48 363.47 444.53 363.47C446.59 363.47 448.25 361.8 448.25 359.75C448.25 357.69 446.59 356.03 444.53 356.03Z" id="byT0VsGK4"></path><path d="M377.14 104.1C383.78 84.17 376.6 62.24 359.47 50.09C359.47 50.08 359.54 50.05 359.54 50.04C355.85 47.44 351.8 45.39 347.51 43.95C347.51 43.95 347.51 43.95 347.51 43.95L347.38 43.9L347.24 43.85C347.24 43.85 347.24 43.85 347.24 43.85C343.08 42.45 338.75 41.63 334.36 41.43C332.81 41.35 331.26 41.35 329.71 41.43C327.02 41.57 324.34 41.94 321.71 42.54C320.95 42.7 320.19 42.89 319.5 43.1C318.8 43.31 318.03 43.53 317.3 43.76C315.86 44.24 314.43 44.78 313.04 45.4C312.34 45.71 311.64 46.03 310.96 46.37C308.91 47.38 306.94 48.54 305.06 49.84C304.43 50.28 303.81 50.73 303.2 51.18C295.67 56.91 290.03 64.77 287.02 73.74C285.54 78.13 273.73 113.27 272.25 117.66C269.93 124.55 269.23 131.88 270.21 139.08C270.36 140.19 270.55 141.29 270.77 142.38C270.99 143.47 271.27 144.54 271.54 145.61C271.74 146.31 271.95 147.02 272.19 147.72C272.54 148.77 272.95 149.81 273.34 150.83C273.62 151.51 273.92 152.19 274.23 152.86C274.85 154.19 275.54 155.5 276.27 156.77C277.01 158.04 277.8 159.28 278.68 160.49C279.32 161.39 280 162.27 280.7 163.12C281.65 164.27 282.64 165.37 283.69 166.42C288.24 171.01 293.68 174.61 299.69 177C299.69 177 299.69 177 299.69 177L299.69 177C299.84 177.07 299.93 177.1 299.95 177.11C300.27 176.54 300.63 175.99 301.01 175.46C303.3 172.33 307.28 170.12 311.06 170.95C311.34 171.01 311.61 171.09 311.89 171.18C313.81 171.85 315.7 173.07 317.55 173.66C318.91 174.27 320.47 174.25 321.82 173.61C325.52 171.63 324.15 165.41 327.33 162.68C327.48 162.55 327.63 162.44 327.79 162.33C327.75 162.27 327.71 162.22 327.67 162.15C330.13 160.63 333.52 161.64 336.35 162.63C339.4 163.7 343.38 164.43 345.49 161.93C346.93 160.23 346.82 157.63 348.18 155.84C349.77 153.78 352.75 153.55 355.34 153.92C355.35 153.92 355.45 153.92 355.47 153.92C360.42 155.96 365.83 152.57 365.45 147.23C365 140.14 367.24 133.43 367.75 131.98C369.63 126.4 376.2 106.89 377.14 104.1Z" id="c3VSv5Swah"></path><linearGradient id="gradientb1d2K13nGa" gradientUnits="userSpaceOnUse" x1="302.98" y1="181.17" x2="348.19" y2="46.95"><stop style="stop-color: #808080;stop-opacity: 0.25" offset="0%"></stop><stop style="stop-color: #808080;stop-opacity: 0.12" offset="54%"></stop><stop style="stop-color: #808080;stop-opacity: 0.1" offset="100%"></stop></linearGradient><path d="M312.42 167.95C316.08 168.78 319.54 172.27 322.8 170.52C327.25 168.14 324.09 159.4 331.32 158.76C332.82 158.66 334.33 158.92 335.71 159.52C338.76 160.76 343.53 162.16 345.88 159.37C347.25 157.72 347.16 155.21 348.47 153.51C350 151.53 352.9 151.27 355.38 151.66C355.39 151.66 355.49 151.69 355.5 151.69C360.28 153.67 365.5 150.39 365.13 145.24C364.65 138.38 366.83 131.92 367.3 130.52C368.21 127.83 375.45 106.31 376.35 103.62C384.37 79.61 371.48 53.63 347.51 45.49C347.51 45.49 347.51 45.49 347.51 45.49C323.51 37.49 297.54 50.38 289.4 74.34C287.98 78.57 276.56 112.42 275.13 116.65C267.43 139.75 279.06 164.84 301.66 173.9C301.98 173.35 302.34 172.82 302.72 172.3C304.95 169.26 308.76 167.12 312.42 167.95Z" id="idMMxUP5g"></path><path d="M319.91 59.27C317.17 59.27 314.95 61.5 314.95 64.23C314.95 66.97 317.17 69.19 319.91 69.19C322.64 69.19 324.87 66.97 324.87 64.23C324.87 61.5 322.64 59.27 319.91 59.27Z" id="bhp2NOUiN"></path><path d="M350.09 59.27C347.35 59.27 345.13 61.5 345.13 64.23C345.13 66.97 347.35 69.19 350.09 69.19C352.83 69.19 355.05 66.97 355.05 64.23C355.05 61.5 352.83 59.27 350.09 59.27Z" id="aI0rzFVyV"></path><path d="M436.05 92.52C436.05 139.2 387.2 177.04 326.94 177.04C277.62 177.01 235.95 151.67 222.48 116.9C232.49 155.58 276.57 184.71 329.46 184.71C389.71 184.71 438.57 146.86 438.57 100.18C438.55 91.82 436.98 83.54 433.92 75.75C435.34 81.23 436.05 86.86 436.05 92.52Z" id="a1cWCb6PNn"></path><path d="M554.8 137.66C554.8 170.23 453.77 196.64 329.14 196.64C204.51 196.64 103.48 170.23 103.48 137.66C103.48 105.09 204.51 78.68 329.14 78.68C453.77 78.68 554.8 105.09 554.8 137.66Z" id="aTsql9ygH"></path><linearGradient id="gradientbsnxPVEjk" gradientUnits="userSpaceOnUse" x1="329.14" y1="196.64" x2="329.14" y2="78.68"><stop style="stop-color: #808080;stop-opacity: 0.25" offset="0%"></stop><stop style="stop-color: #808080;stop-opacity: 0.12" offset="54%"></stop><stop style="stop-color: #808080;stop-opacity: 0.1" offset="100%"></stop></linearGradient><path d="M110.92 137.67C154.56 137.67 503.72 137.67 547.37 137.67C547.37 106.16 449.66 80.63 329.14 80.63C208.62 80.63 110.92 106.16 110.92 137.67Z" id="fVjDd5MlY"></path><path d="M547.37 137.67C503.72 137.67 154.56 137.67 110.92 137.67C110.92 169.16 208.62 194.7 329.14 194.7C449.66 194.7 547.37 169.16 547.37 137.67Z" id="h1KpM5oLk3"></path><path d="M547.37 137.67C503.72 137.67 154.56 137.67 110.92 137.67C110.92 169.16 208.62 194.7 329.14 194.7C449.66 194.7 547.37 169.16 547.37 137.67Z" id="a3ZUhUwYB"></path><path d="M420.18 122.78C428.92 122.78 433.3 127.15 433.3 135.9C433.3 138.01 433.3 139.19 433.3 139.42C433.3 148.17 428.92 152.54 420.18 152.54C310.94 152.54 250.25 152.54 238.11 152.54C229.36 152.54 224.99 148.17 224.99 139.42C224.99 137.31 224.99 136.13 224.99 135.9C224.99 127.15 229.36 122.78 238.11 122.78C347.35 122.78 408.04 122.78 420.18 122.78Z" id="a1U4DKjtZd"></path><path d="M100.45 40.66C100.48 40.56 100.5 40.46 100.51 40.35C100.51 40.35 100.51 40.35 100.51 40.35C100.56 39.58 99.97 38.91 99.2 38.86C98.73 38.83 98.27 39.04 97.99 39.42C97.99 39.42 97.99 39.42 97.99 39.42C97.93 39.51 97.88 39.6 97.84 39.69C97.27 41 95.81 41.67 94.45 41.26C94.35 41.22 94.25 41.2 94.14 41.19C94.14 41.19 94.14 41.19 94.14 41.19C93.37 41.15 92.7 41.73 92.65 42.5C92.62 42.98 92.83 43.43 93.21 43.72C93.21 43.72 93.21 43.72 93.21 43.72C93.3 43.78 93.39 43.84 93.49 43.88C94.79 44.45 95.46 45.9 95.05 47.26C95.02 47.36 95 47.46 94.99 47.56C94.99 47.56 94.99 47.56 94.99 47.56C94.93 48.34 95.51 49.01 96.29 49.06C96.76 49.1 97.22 48.88 97.51 48.5C97.51 48.5 97.51 48.5 97.51 48.5C97.57 48.41 97.62 48.32 97.66 48.22C98.24 46.93 99.69 46.27 101.04 46.7C101.15 46.73 101.25 46.75 101.36 46.76C101.36 46.76 101.36 46.76 101.36 46.76C102.13 46.81 102.8 46.22 102.85 45.45C102.88 44.98 102.67 44.52 102.29 44.23C102.29 44.23 102.29 44.23 102.29 44.23C102.2 44.16 102.11 44.1 102.01 44.04C100.71 43.48 100.04 42.02 100.45 40.66Z" id="c4cp7AZU0Q"></path><path d="M488.3 273.8C488.33 273.7 488.35 273.6 488.36 273.49C488.36 273.49 488.36 273.49 488.36 273.49C488.41 272.72 487.82 272.05 487.05 272C486.58 271.97 486.12 272.18 485.84 272.56C485.84 272.56 485.84 272.56 485.84 272.56C485.78 272.65 485.72 272.74 485.68 272.84C485.12 274.14 483.66 274.81 482.3 274.4C482.2 274.37 482.09 274.35 481.99 274.34C481.99 274.34 481.99 274.34 481.99 274.34C481.22 274.29 480.55 274.87 480.5 275.65C480.47 276.12 480.68 276.58 481.06 276.86C481.06 276.86 481.06 276.86 481.06 276.86C481.14 276.92 481.24 276.98 481.33 277.02C482.62 277.6 483.27 279.05 482.86 280.4C482.83 280.5 482.81 280.6 482.8 280.71C482.8 280.71 482.8 280.71 482.8 280.71C482.74 281.48 483.32 282.15 484.1 282.2C484.57 282.24 485.03 282.03 485.32 281.64C485.32 281.64 485.32 281.64 485.32 281.64C485.38 281.56 485.43 281.46 485.47 281.36C486.05 280.07 487.5 279.42 488.85 279.84C488.96 279.87 489.06 279.89 489.17 279.9C489.17 279.9 489.17 279.9 489.17 279.9C489.94 279.95 490.61 279.36 490.65 278.59C490.69 278.12 490.47 277.66 490.1 277.38C490.1 277.38 490.1 277.38 490.1 277.38C490.01 277.3 489.92 277.24 489.82 277.19C488.53 276.61 487.88 275.16 488.3 273.8Z" id="a1gGa7LeNL"></path><path d="M60.07 381.99C60.1 381.89 60.12 381.79 60.13 381.68C60.13 381.68 60.13 381.68 60.13 381.68C60.18 380.91 59.59 380.24 58.82 380.19C58.35 380.16 57.89 380.37 57.61 380.75C57.61 380.75 57.61 380.75 57.61 380.75C57.55 380.84 57.5 380.93 57.46 381.03C56.89 382.33 55.43 383.01 54.07 382.59C53.97 382.56 53.87 382.54 53.76 382.53C53.76 382.53 53.76 382.53 53.76 382.53C52.99 382.48 52.32 383.06 52.27 383.84C52.24 384.31 52.45 384.77 52.83 385.05C52.83 385.05 52.83 385.05 52.83 385.05C52.91 385.12 53.01 385.17 53.1 385.21C54.41 385.78 55.08 387.23 54.67 388.59C54.64 388.69 54.61 388.79 54.61 388.9C54.61 388.9 54.61 388.9 54.61 388.9C54.55 389.67 55.13 390.34 55.91 390.39C56.38 390.43 56.84 390.22 57.13 389.83C57.13 389.83 57.13 389.83 57.13 389.83C57.19 389.75 57.24 389.65 57.28 389.55C57.86 388.26 59.31 387.61 60.66 388.03C60.76 388.06 60.87 388.08 60.98 388.09C60.98 388.09 60.98 388.09 60.98 388.09C61.75 388.14 62.41 387.55 62.46 386.78C62.49 386.31 62.28 385.85 61.9 385.57C61.9 385.57 61.9 385.57 61.9 385.57C61.82 385.49 61.73 385.43 61.63 385.38C60.33 384.81 59.66 383.36 60.07 381.99Z" id="a2aavD1uLc"></path><path d="M18.2 129.8C18.23 129.7 18.25 129.6 18.26 129.49C18.26 129.49 18.26 129.49 18.26 129.49C18.31 128.72 17.73 128.05 16.95 128C16.48 127.97 16.02 128.18 15.74 128.56C15.74 128.56 15.74 128.56 15.74 128.56C15.68 128.65 15.63 128.74 15.59 128.84C15.02 130.14 13.57 130.81 12.21 130.4C12.1 130.37 12 130.35 11.89 130.34C11.89 130.34 11.89 130.34 11.89 130.34C11.12 130.29 10.45 130.87 10.4 131.65C10.37 132.12 10.58 132.58 10.96 132.86C10.96 132.86 10.96 132.86 10.96 132.86C11.05 132.92 11.14 132.98 11.24 133.02C12.54 133.59 13.21 135.04 12.8 136.4C12.77 136.5 12.75 136.6 12.74 136.71C12.74 136.71 12.74 136.71 12.74 136.71C12.68 137.48 13.27 138.15 14.04 138.2C14.51 138.24 14.98 138.03 15.26 137.64C15.26 137.64 15.26 137.64 15.26 137.64C15.32 137.56 15.37 137.46 15.41 137.36C15.99 136.07 17.45 135.42 18.8 135.84C18.9 135.87 19 135.89 19.11 135.9C19.11 135.9 19.11 135.9 19.11 135.9C19.88 135.95 20.55 135.36 20.6 134.59C20.63 134.12 20.42 133.66 20.04 133.38C20.04 133.38 20.04 133.38 20.04 133.38C19.94 133.3 19.84 133.23 19.73 133.19C18.44 132.61 17.78 131.16 18.2 129.8Z" id="b3DcEk9q0S"></path><path d="M480.68 1.8C480.71 1.7 480.73 1.6 480.74 1.49C480.74 1.49 480.74 1.49 480.74 1.49C480.79 0.72 480.2 0.05 479.43 0C478.96 -0.03 478.5 0.18 478.22 0.56C478.22 0.56 478.22 0.56 478.22 0.56C478.16 0.65 478.11 0.74 478.06 0.84C477.49 2.13 476.03 2.78 474.68 2.36C474.58 2.33 474.48 2.31 474.37 2.3C474.37 2.3 474.37 2.3 474.37 2.3C473.61 2.14 472.87 2.63 472.71 3.38C472.58 3.99 472.86 4.6 473.4 4.9C473.4 4.9 473.4 4.9 473.4 4.9C473.49 4.96 473.58 5.02 473.68 5.06C474.96 5.64 475.62 7.09 475.2 8.44C475.17 8.54 475.15 8.64 475.14 8.75C475.14 8.75 475.14 8.75 475.14 8.75C475.06 9.52 475.62 10.2 476.39 10.28C476.92 10.34 477.43 10.09 477.71 9.64C477.71 9.64 477.71 9.64 477.71 9.64C477.78 9.56 477.83 9.46 477.87 9.36C478.45 8.07 479.9 7.42 481.25 7.84C481.35 7.87 481.46 7.89 481.56 7.9C481.56 7.9 481.56 7.9 481.56 7.9C482.33 7.95 483 7.36 483.05 6.59C483.08 6.12 482.87 5.66 482.49 5.38C482.49 5.38 482.49 5.38 482.49 5.38C482.4 5.3 482.31 5.24 482.2 5.19C480.91 4.61 480.26 3.16 480.68 1.8Z" id="b40JiesO7"></path><path d="M86.1 196.46C86.1 196.46 86.1 196.46 86.1 196.46C86.1 204.23 86.1 208.54 86.1 209.41C86.1 209.41 86.1 209.41 86.1 209.41C84.72 209.41 83.96 209.41 83.81 209.41C83.81 209.41 83.81 209.41 83.81 209.41C83.81 201.64 83.81 197.32 83.81 196.46C83.81 196.46 83.81 196.46 83.81 196.46C85.18 196.46 85.94 196.46 86.1 196.46Z" id="a1k3zAwOow"></path><path d="M91.43 204.07C91.43 204.07 91.43 204.07 91.43 204.07C83.66 204.07 79.34 204.07 78.48 204.07C78.48 204.07 78.48 204.07 78.48 204.07C78.48 202.7 78.48 201.94 78.48 201.79C78.48 201.79 78.48 201.79 78.48 201.79C86.25 201.79 90.57 201.79 91.43 201.79C91.43 201.79 91.43 201.79 91.43 201.79C91.43 203.16 91.43 203.92 91.43 204.07Z" id="jyTRFaFOA"></path><path d="M634.67 135.5C634.67 135.5 634.67 135.5 634.67 135.5C634.67 143.27 634.67 147.59 634.67 148.46C634.67 148.46 634.67 148.46 634.67 148.46C633.3 148.46 632.53 148.46 632.38 148.46C632.38 148.46 632.38 148.46 632.38 148.46C632.38 140.68 632.38 136.37 632.38 135.5C632.38 135.5 632.38 135.5 632.38 135.5C633.75 135.5 634.51 135.5 634.67 135.5Z" id="a9zSbOLYd"></path><path d="M640 143.12C640 143.12 640 143.12 640 143.12C632.23 143.12 627.91 143.12 627.05 143.12C627.05 143.12 627.05 143.12 627.05 143.12C627.05 141.75 627.05 140.99 627.05 140.84C627.05 140.84 627.05 140.84 627.05 140.84C634.82 140.84 639.14 140.84 640 140.84C640 140.84 640 140.84 640 140.84C640 142.21 640 142.97 640 143.12Z" id="a28QAwsdRL"></path><path d="M558.48 348.07C558.48 348.07 558.48 348.07 558.48 348.07C558.48 355.85 558.48 360.16 558.48 361.03C558.48 361.03 558.48 361.03 558.48 361.03C557.1 361.03 556.34 361.03 556.19 361.03C556.19 361.03 556.19 361.03 556.19 361.03C556.19 353.26 556.19 348.94 556.19 348.07C556.19 348.07 556.19 348.07 556.19 348.07C557.56 348.07 558.32 348.07 558.48 348.07Z" id="gAUH2ATK9"></path><path d="M563.81 355.69C563.81 355.69 563.81 355.69 563.81 355.69C556.04 355.69 551.72 355.69 550.86 355.69C550.86 355.69 550.86 355.69 550.86 355.69C550.86 354.32 550.86 353.56 550.86 353.41C550.86 353.41 550.86 353.41 550.86 353.41C558.63 353.41 562.95 353.41 563.81 353.41C563.81 353.41 563.81 353.41 563.81 353.41C563.81 354.78 563.81 355.54 563.81 355.69Z" id="cpNxMgYVe"></path><path d="M550.86 57.79C548.33 57.79 546.29 59.84 546.29 62.36C546.29 64.89 548.33 66.93 550.86 66.93C553.38 66.93 555.43 64.89 555.43 62.36C555.43 59.84 553.38 57.79 550.86 57.79Z" id="i1mBUyvtfY"></path><path d="M4.57 5.22C2.05 5.22 0 7.26 0 9.79C0 12.31 2.05 14.36 4.57 14.36C7.1 14.36 9.14 12.31 9.14 9.79C9.14 7.26 7.1 5.22 4.57 5.22Z" id="hmfXHuY3k"></path><path d="M141.71 268.07C139.19 268.07 137.14 270.12 137.14 272.65C137.14 275.17 139.19 277.22 141.71 277.22C144.24 277.22 146.29 275.17 146.29 272.65C146.29 270.12 144.24 268.07 141.71 268.07Z" id="e5Ky4RhrGu"></path><path d="M204.19 117.66C204.19 120.61 192.59 122.99 178.29 122.99C163.98 122.99 152.38 120.61 152.38 117.66C152.38 114.71 163.98 112.33 178.29 112.33C192.59 112.33 204.19 114.71 204.19 117.66Z" id="c5s7ornMx"></path><path d="M204.19 158.04C204.19 160.99 192.59 163.37 178.29 163.37C163.98 163.37 152.38 160.99 152.38 158.04C152.38 155.1 163.98 152.71 178.29 152.71C192.59 152.71 204.19 155.1 204.19 158.04Z" id="b6ifkha1MU"></path><path d="M499.05 117.66C499.05 120.61 487.45 122.99 473.14 122.99C458.84 122.99 447.24 120.61 447.24 117.66C447.24 114.71 458.84 112.33 473.14 112.33C487.45 112.33 499.05 114.71 499.05 117.66Z" id="a25TbhbNKp"></path><path d="M499.05 158.04C499.05 160.99 487.45 163.37 473.14 163.37C458.84 163.37 447.24 160.99 447.24 158.04C447.24 155.1 458.84 152.71 473.14 152.71C487.45 152.71 499.05 155.1 499.05 158.04Z" id="ak0BXTsjT"></path><path d="M355.05 94.8C355.05 97.75 343.45 100.14 329.14 100.14C314.84 100.14 303.24 97.75 303.24 94.8C303.24 91.86 314.84 89.47 329.14 89.47C343.45 89.47 355.05 91.86 355.05 94.8Z" id="kDNKj9BxD"></path><path d="M355.05 174.04C355.05 176.99 343.45 179.37 329.14 179.37C314.84 179.37 303.24 176.99 303.24 174.04C303.24 171.1 314.84 168.71 329.14 168.71C343.45 168.71 355.05 171.1 355.05 174.04Z" id="bBs37kOsG"></path><path d="M272.76 458.28L347.75 486.62C368.37 432.04 379.82 401.73 382.11 395.66C383.93 390.85 380.67 385.14 374.84 382.93C369.46 380.9 326.39 364.63 321 362.59C315.17 360.39 308.95 362.51 307.13 367.33C302.55 379.46 291.09 409.77 272.76 458.28Z" id="f3dRXG9MXr"></path><path d="M279.9 456.68L343.46 480.7C360.93 434.44 370.64 408.74 372.59 403.6C374.13 399.52 371.36 394.68 366.42 392.81C361.86 391.09 325.35 377.29 320.79 375.57C315.84 373.7 310.57 375.5 309.03 379.59C305.14 389.87 295.43 415.56 279.9 456.68Z" id="b12lZx6bth"></path><path d="M312.54 351.3C310.68 350.6 308.7 351.28 308.13 352.81C307.82 353.61 305.4 360.02 305.1 360.82C304.52 362.35 305.56 364.17 307.41 364.87C315.02 367.75 375.92 390.75 383.53 393.63C385.38 394.33 387.36 393.66 387.94 392.12C388.24 391.32 390.66 384.91 390.97 384.11C391.55 382.58 390.51 380.76 388.66 380.06C373.43 374.31 327.76 357.06 312.54 351.3Z" id="a12jTzJUIJ"></path><path d="M292.98 450.33C291.17 449.65 289.14 450.56 288.46 452.37C288.46 452.37 288.46 452.37 288.46 452.37C287.78 454.18 288.69 456.21 290.5 456.9C290.91 457.05 292.96 457.82 296.65 459.22L299.13 452.65C295.85 451.41 293.8 450.64 292.98 450.33Z" id="c6Th0evqrk"></path><path d="M298.79 452.52L296.31 459.09C299.9 460.45 301.89 461.2 302.29 461.35C304.1 462.03 306.12 461.12 306.81 459.31C306.81 459.31 306.81 459.31 306.81 459.31C307.49 457.49 306.58 455.47 304.77 454.78C303.97 454.48 301.98 453.73 298.79 452.52Z" id="d1WZskLCW6"></path><path d="M306.6 458.84C306.6 458.84 306.6 458.84 306.6 458.84C305.91 460.65 303.89 461.56 302.08 460.89C301.7 460.74 299.82 460.03 296.44 458.75L296.31 459.09C299.9 460.45 301.89 461.2 302.29 461.35C304.1 462.03 306.12 461.12 306.81 459.31C306.81 459.31 306.81 459.31 306.81 459.31C307.17 458.35 307.1 457.29 306.61 456.4C306.9 457.19 306.9 458.05 306.6 458.84Z" id="dniAYDnxb"></path><path d="M339.41 411.34C338.66 409.56 336.61 408.71 334.82 409.45C334.82 409.45 334.82 409.45 334.82 409.45C333.03 410.2 332.19 412.25 332.93 414.04C333.09 414.45 333.94 416.47 335.45 420.11L341.93 417.41C340.59 414.17 339.74 412.15 339.41 411.34Z" id="bemtvL1BH"></path><path d="M341.8 417.08L335.31 419.78C336.79 423.32 337.61 425.28 337.77 425.68C338.52 427.46 340.57 428.31 342.36 427.57C342.36 427.57 342.36 427.57 342.36 427.57C344.15 426.82 344.99 424.77 344.25 422.98C343.92 422.19 343.11 420.22 341.8 417.08Z" id="b6JreuDkye"></path><path d="M342.56 427.1C342.56 427.1 342.56 427.1 342.56 427.1C340.77 427.84 338.71 426.99 337.97 425.21C337.81 424.83 337.04 422.98 335.65 419.64L335.31 419.78C336.79 423.32 337.61 425.28 337.77 425.68C338.52 427.46 340.57 428.31 342.36 427.57C342.36 427.57 342.36 427.57 342.36 427.57C343.3 427.17 344.02 426.39 344.34 425.42C343.97 426.18 343.33 426.77 342.56 427.1Z" id="b2akpwVyo7"></path><path d="M318 415.09C317.25 413.3 315.2 412.46 313.41 413.2C313.41 413.2 313.41 413.2 313.41 413.2C311.62 413.95 310.78 416 311.52 417.79C311.69 418.19 312.53 420.21 314.04 423.85L320.52 421.15C319.18 417.92 318.33 415.9 318 415.09Z" id="aacZtypt8i"></path><path d="M320.39 420.82L313.9 423.52C315.38 427.06 316.2 429.03 316.36 429.42C317.11 431.21 319.16 432.05 320.95 431.31C320.95 431.31 320.95 431.31 320.95 431.31C322.74 430.56 323.58 428.51 322.84 426.72C322.52 425.93 321.7 423.97 320.39 420.82Z" id="eYACEP7XM"></path><path d="M321.15 430.84C321.15 430.84 321.15 430.84 321.15 430.84C319.36 431.58 317.31 430.73 316.56 428.95C316.4 428.58 315.63 426.72 314.24 423.38L313.9 423.52C315.38 427.06 316.2 429.03 316.36 429.42C317.11 431.21 319.16 432.05 320.95 431.31C320.95 431.31 320.95 431.31 320.95 431.31C321.89 430.92 322.61 430.13 322.93 429.17C322.56 429.92 321.92 430.52 321.15 430.84Z" id="bsRQeM3Ue"></path><path d="M331.85 431.34C331.1 429.55 329.05 428.71 327.26 429.45C327.26 429.45 327.26 429.45 327.26 429.45C325.48 430.2 324.63 432.25 325.37 434.04C325.54 434.44 326.38 436.47 327.9 440.11L334.38 437.41C333.03 434.17 332.19 432.15 331.85 431.34Z" id="o6oTrHnEGs"></path><path d="M334.24 437.07L327.76 439.77C329.23 443.31 330.05 445.28 330.22 445.67C330.97 447.46 333.02 448.3 334.81 447.56C334.81 447.56 334.81 447.56 334.81 447.56C336.59 446.81 337.44 444.76 336.7 442.97C336.37 442.19 335.55 440.22 334.24 437.07Z" id="h1IUbVuLtb"></path><path d="M335 447.09C335 447.09 335 447.09 335 447.09C333.21 447.83 331.16 446.99 330.41 445.2C330.26 444.83 329.48 442.97 328.09 439.63L327.76 439.77C329.23 443.31 330.05 445.28 330.22 445.67C330.97 447.46 333.02 448.3 334.81 447.56C334.81 447.56 334.81 447.56 334.81 447.56C335.75 447.17 336.47 446.39 336.78 445.42C336.41 446.17 335.78 446.77 335 447.09Z" id="bpR3Yos"></path><path d="M334.77 455.89C336.55 455.12 337.37 453.06 336.61 451.28C336.61 451.28 336.61 451.28 336.61 451.28C335.84 449.5 333.78 448.68 331.99 449.44C331.59 449.62 329.58 450.48 325.96 452.04L328.74 458.49C331.96 457.11 333.97 456.24 334.77 455.89Z" id="d5S8U2XLb"></path><path d="M329.07 458.35L326.29 451.9C322.77 453.42 320.81 454.26 320.42 454.43C318.65 455.2 317.83 457.26 318.59 459.04C318.59 459.04 318.59 459.04 318.59 459.04C319.36 460.82 321.42 461.64 323.2 460.88C323.98 460.54 325.94 459.7 329.07 458.35Z" id="efZA98wp9"></path><path d="M319.06 459.23C319.06 459.23 319.06 459.23 319.06 459.23C318.3 457.45 319.12 455.39 320.89 454.62C321.26 454.46 323.11 453.66 326.43 452.23L326.29 451.9C322.77 453.42 320.81 454.26 320.42 454.43C318.65 455.2 317.83 457.26 318.59 459.04C318.59 459.04 318.59 459.04 318.59 459.04C318.99 459.98 319.78 460.69 320.76 461C320 460.63 319.39 460.01 319.06 459.23Z" id="a1YdxJuBVG"></path><path d="M315.12 436.63C316.89 435.86 317.71 433.8 316.95 432.02C316.95 432.02 316.95 432.02 316.95 432.02C316.18 430.24 314.12 429.42 312.34 430.19C311.94 430.36 309.93 431.23 306.31 432.78L309.08 439.23C312.3 437.85 314.31 436.98 315.12 436.63Z" id="a7Oltenm3"></path><path d="M309.41 439.09L306.64 432.64C303.11 434.16 301.16 435 300.77 435.17C298.99 435.94 298.17 438 298.93 439.78C298.93 439.78 298.93 439.78 298.93 439.78C299.7 441.56 301.76 442.38 303.54 441.62C304.33 441.28 306.28 440.44 309.41 439.09Z" id="clOQeQ0xA"></path><path d="M299.4 439.97C299.4 439.97 299.4 439.97 299.4 439.97C298.64 438.19 299.46 436.13 301.24 435.36C301.61 435.2 303.46 434.4 306.78 432.97L306.64 432.64C303.11 434.16 301.16 435 300.77 435.17C298.99 435.94 298.17 438 298.93 439.78C298.93 439.78 298.93 439.78 298.93 439.78C299.34 440.72 300.13 441.43 301.1 441.74C300.34 441.37 299.74 440.75 299.4 439.97Z" id="a9XyZlNQD"></path><path d="M353.41 436.82C355.18 436.05 356 433.99 355.24 432.2C355.24 432.2 355.24 432.2 355.24 432.2C354.47 430.43 352.41 429.61 350.63 430.37C350.23 430.54 348.21 431.41 344.59 432.97L347.37 439.42C350.59 438.03 352.6 437.16 353.41 436.82Z" id="cLBCatu3c"></path><path d="M347.7 439.28L344.92 432.83C341.4 434.34 339.45 435.19 339.05 435.36C337.28 436.13 336.46 438.19 337.22 439.97C337.22 439.97 337.22 439.97 337.22 439.97C337.99 441.74 340.05 442.56 341.83 441.8C342.61 441.47 344.57 440.62 347.7 439.28Z" id="a23Knvid71"></path><path d="M337.69 440.16C337.69 440.16 337.69 440.16 337.69 440.16C336.93 438.38 337.75 436.32 339.53 435.54C339.9 435.38 341.74 434.59 345.07 433.16L344.92 432.83C341.4 434.34 339.45 435.19 339.05 435.36C337.28 436.13 336.46 438.19 337.22 439.97C337.22 439.97 337.22 439.97 337.22 439.97C337.62 440.9 338.42 441.62 339.39 441.92C338.63 441.56 338.03 440.93 337.69 440.16Z" id="g4d21xwI3n"></path><path d="M336.16 459.9C335.41 458.11 333.36 457.27 331.57 458.01C331.57 458.01 331.57 458.01 331.57 458.01C329.78 458.76 328.94 460.81 329.68 462.6C329.85 463 330.69 465.02 332.2 468.66L338.69 465.96C337.34 462.73 336.5 460.71 336.16 459.9Z" id="b215Qn9TWX"></path><path d="M338.55 465.63L332.07 468.33C333.54 471.87 334.36 473.84 334.52 474.23C335.27 476.02 337.32 476.86 339.11 476.12C339.11 476.12 339.11 476.12 339.11 476.12C340.9 475.37 341.74 473.32 341 471.53C340.68 470.75 339.86 468.78 338.55 465.63Z" id="c23AtYNcnI"></path><path d="M339.31 475.65C339.31 475.65 339.31 475.65 339.31 475.65C337.52 476.39 335.47 475.55 334.72 473.76C334.56 473.39 333.79 471.53 332.4 468.19L332.07 468.33C333.54 471.87 334.36 473.84 334.52 474.23C335.27 476.02 337.32 476.86 339.11 476.12C339.11 476.12 339.11 476.12 339.11 476.12C340.05 475.73 340.78 474.95 341.09 473.98C340.72 474.73 340.08 475.33 339.31 475.65Z" id="e2zB7GZBk"></path><path d="M313.08 450.77C312.33 448.99 310.28 448.14 308.49 448.88C308.49 448.88 308.49 448.88 308.49 448.88C306.71 449.63 305.86 451.68 306.6 453.47C306.77 453.88 307.61 455.9 309.13 459.54L315.61 456.84C314.26 453.6 313.42 451.58 313.08 450.77Z" id="dfM3ds9Lt"></path><path d="M315.47 456.51L308.99 459.2C310.47 462.74 311.28 464.71 311.45 465.1C312.2 466.89 314.25 467.74 316.04 467C316.04 467 316.04 467 316.04 467C317.82 466.25 318.67 464.2 317.93 462.41C317.6 461.62 316.78 459.65 315.47 456.51Z" id="e1ie9jM7B4"></path><path d="M316.23 466.52C316.23 466.52 316.23 466.52 316.23 466.52C314.44 467.26 312.39 466.42 311.64 464.63C311.49 464.26 310.71 462.41 309.32 459.07L308.99 459.2C310.47 462.74 311.28 464.71 311.45 465.1C312.2 466.89 314.25 467.74 316.04 467C316.04 467 316.04 467 316.04 467C316.98 466.6 317.7 465.82 318.02 464.85C317.64 465.61 317.01 466.2 316.23 466.52Z" id="a2HgpWXMJK"></path><path d="M318.53 444.67C317.85 444.56 317.21 444.32 316.63 443.95C314.27 442.46 313.56 439.33 315.05 436.97C316.13 435.25 318.14 434.35 320.14 434.67C320.81 434.78 321.46 435.02 322.03 435.39C324.07 436.67 324.92 439.21 324.07 441.46C323.22 443.71 320.9 445.05 318.53 444.67Z" id="f5erMLZUOZ"></path><path d="M318.53 444.67C317.85 444.56 317.21 444.32 316.63 443.95C316.98 443.03 319.79 435.6 320.14 434.67C320.81 434.78 321.46 435.02 322.03 435.39C321.33 437.24 318.88 443.74 318.53 444.67Z" id="b23rRwMqu"></path><path d="M327.82 426.55C327.15 426.44 326.5 426.2 325.93 425.84C323.56 424.35 322.85 421.22 324.34 418.85C325.43 417.14 327.43 416.23 329.43 416.56C330.11 416.67 330.75 416.91 331.33 417.27C333.36 418.55 334.21 421.09 333.36 423.34C332.51 425.59 330.2 426.94 327.82 426.55Z" id="beuf2knVC"></path><path d="M327.82 426.55C327.15 426.44 326.5 426.2 325.93 425.84C326.28 424.91 329.08 417.48 329.43 416.56C330.11 416.67 330.75 416.91 331.33 417.27C330.63 419.13 328.17 425.63 327.82 426.55Z" id="e1f6LKOgr6"></path><path d="M317.57 453.69C316.89 453.58 316.25 453.34 315.67 452.98C313.31 451.48 312.6 448.36 314.09 445.99C315.17 444.27 317.18 443.37 319.18 443.69C319.85 443.8 320.5 444.05 321.07 444.41C323.11 445.69 323.96 448.23 323.11 450.48C322.26 452.73 319.94 454.07 317.57 453.69Z" id="eKTkDzbIG"></path><path d="M317.57 453.69C316.89 453.58 316.25 453.34 315.67 452.98C316.02 452.05 318.83 444.62 319.18 443.69C319.85 443.8 320.5 444.05 321.07 444.41C320.37 446.27 317.92 452.76 317.57 453.69Z" id="d2GJJSD7xR"></path><path d="M324.36 471.36C323.68 471.25 323.04 471 322.46 470.64C320.1 469.15 319.39 466.02 320.88 463.65C321.96 461.94 323.97 461.03 325.97 461.36C326.64 461.47 327.29 461.71 327.86 462.07C329.9 463.36 330.75 465.9 329.9 468.15C329.05 470.4 326.73 471.74 324.36 471.36Z" id="a1Caej4MNm"></path><path d="M324.36 471.36C323.68 471.25 323.04 471 322.46 470.64C322.81 469.71 325.62 462.29 325.97 461.36C326.64 461.47 327.29 461.71 327.86 462.07C327.16 463.93 324.71 470.43 324.36 471.36Z" id="bhbMIckHf"></path><path d="M347.96 453.99C347.41 454.4 346.79 454.69 346.13 454.86C343.41 455.52 340.67 453.86 340 451.15C339.52 449.18 340.26 447.11 341.88 445.89C342.43 445.48 343.05 445.19 343.71 445.02C346.05 444.45 348.46 445.6 349.49 447.77C350.52 449.94 349.88 452.54 347.96 453.99Z" id="f3vkk8MFp"></path><path d="M347.96 453.99C347.41 454.4 346.79 454.69 346.13 454.86C345.7 453.96 342.3 446.79 341.88 445.89C342.43 445.48 343.05 445.19 343.71 445.02C343.71 445.02 347.53 453.09 347.96 453.99Z" id="a1XZBKxft5"></path><path d="M345.47 464.88C344.93 465.29 344.31 465.59 343.64 465.75C340.93 466.42 338.19 464.76 337.52 462.04C337.03 460.07 337.77 458 339.39 456.78C339.94 456.38 340.56 456.08 341.22 455.92C343.56 455.34 345.98 456.49 347.01 458.67C348.04 460.84 347.4 463.44 345.47 464.88Z" id="evqJkLYK"></path><path d="M345.47 464.88C344.93 465.29 344.31 465.59 343.64 465.75C343.22 464.85 339.82 457.68 339.39 456.78C339.94 456.38 340.56 456.08 341.22 455.92C341.22 455.92 345.05 463.99 345.47 464.88Z" id="c3dR7X1Qq8"></path><path d="M302.04 451.33C301.49 451.74 300.87 452.03 300.21 452.2C297.49 452.86 294.75 451.2 294.08 448.49C293.6 446.52 294.34 444.45 295.96 443.23C296.5 442.82 297.13 442.53 297.79 442.36C300.12 441.79 302.54 442.94 303.57 445.11C304.6 447.28 303.96 449.88 302.04 451.33Z" id="h3LxDfxjGe"></path><path d="M302.04 451.33C301.49 451.74 300.87 452.03 300.21 452.2C299.78 451.3 296.38 444.12 295.96 443.23C296.5 442.82 297.13 442.53 297.79 442.36C297.79 442.36 301.61 450.43 302.04 451.33Z" id="k4AGiip0pU"></path><path d="M320.42 354.28C320.42 354.28 320.42 354.28 320.42 354.28C317.43 362.21 315.76 366.61 315.43 367.49C315.43 367.49 315.43 367.49 315.43 367.49C314.36 367.09 313.76 366.87 313.65 366.82C313.65 366.82 313.65 366.82 313.65 366.82C316.64 358.89 318.3 354.49 318.64 353.61C318.64 353.61 318.64 353.61 318.64 353.61C319.71 354.01 320.3 354.24 320.42 354.28Z" id="c7z4VEOdl"></path><path d="M330.78 358.2C330.78 358.2 330.78 358.2 330.78 358.2C327.78 366.12 326.12 370.53 325.79 371.41C325.79 371.41 325.79 371.41 325.79 371.41C324.71 371 324.12 370.78 324 370.73C324 370.73 324 370.73 324 370.73C327 362.81 328.66 358.4 328.99 357.52C328.99 357.52 328.99 357.52 328.99 357.52C330.06 357.93 330.66 358.15 330.78 358.2Z" id="c1kzuMmxu"></path><path d="M341.13 362.11C341.13 362.11 341.13 362.11 341.13 362.11C338.14 370.04 336.47 374.44 336.14 375.32C336.14 375.32 336.14 375.32 336.14 375.32C335.07 374.92 334.47 374.69 334.36 374.65C334.36 374.65 334.36 374.65 334.36 374.65C337.35 366.72 339.01 362.31 339.35 361.43C339.35 361.43 339.35 361.43 339.35 361.43C340.42 361.84 341.01 362.06 341.13 362.11Z" id="g1F5gauHlG"></path><path d="M351.49 366.02C351.49 366.02 351.49 366.02 351.49 366.02C348.49 373.95 346.83 378.35 346.5 379.23C346.5 379.23 346.5 379.23 346.5 379.23C345.42 378.83 344.83 378.6 344.71 378.56C344.71 378.56 344.71 378.56 344.71 378.56C347.71 370.63 349.37 366.23 349.7 365.35C349.7 365.35 349.7 365.35 349.7 365.35C350.77 365.75 351.37 365.98 351.49 366.02Z" id="d14zd0QAUy"></path><path d="M361.84 369.93C361.84 369.93 361.84 369.93 361.84 369.93C358.85 377.86 357.18 382.26 356.85 383.15C356.85 383.15 356.85 383.15 356.85 383.15C355.78 382.74 355.19 382.52 355.07 382.47C355.07 382.47 355.07 382.47 355.07 382.47C358.06 374.54 359.73 370.14 360.06 369.26C360.06 369.26 360.06 369.26 360.06 369.26C361.13 369.66 361.72 369.89 361.84 369.93Z" id="b1VQvJA5MQ"></path><path d="M372.2 373.85C372.2 373.85 372.2 373.85 372.2 373.85C369.2 381.77 367.54 386.18 367.21 387.06C367.21 387.06 367.21 387.06 367.21 387.06C366.14 386.65 365.54 386.43 365.42 386.38C365.42 386.38 365.42 386.38 365.42 386.38C368.42 378.46 370.08 374.05 370.41 373.17C370.41 373.17 370.41 373.17 370.41 373.17C371.48 373.58 372.08 373.8 372.2 373.85Z" id="o8byHQNpe"></path><path d="M382.55 377.76C382.55 377.76 382.55 377.76 382.55 377.76C379.56 385.69 377.89 390.09 377.56 390.97C377.56 390.97 377.56 390.97 377.56 390.97C376.49 390.57 375.9 390.34 375.78 390.3C375.78 390.3 375.78 390.3 375.78 390.3C378.77 382.37 380.44 377.96 380.77 377.08C380.77 377.08 380.77 377.08 380.77 377.08C381.84 377.49 382.43 377.71 382.55 377.76Z" id="k2uN5cJcb2"></path></defs><g><g><use xlink:href="#d4ono9XEzi" opacity="1" fill="url(#gradienta3igLCvmOX)"></use><g><use xlink:href="#d4ono9XEzi" opacity="1" fill-opacity="0" stroke="#000000" stroke-width="1" stroke-opacity="0"></use></g></g><g><use xlink:href="#k43rBG8U9t" opacity="1" fill="#0a7aa3" fill-opacity="1"></use><g><use xlink:href="#k43rBG8U9t" opacity="1" fill-opacity="0" stroke="#000000" stroke-width="1" stroke-opacity="0"></use></g></g><g><use xlink:href="#b5U38pIV1E" opacity="1" fill="#ffffff" fill-opacity="1"></use><g><use xlink:href="#b5U38pIV1E" opacity="1" fill-opacity="0" stroke="#000000" stroke-width="1" stroke-opacity="0"></use></g></g><g><use xlink:href="#b2gVzoEAyC" opacity="1" fill="#0a7aa3" fill-opacity="1"></use><g><use xlink:href="#b2gVzoEAyC" opacity="1" fill-opacity="0" stroke="#000000" stroke-width="1" stroke-opacity="0"></use></g></g><g><use xlink:href="#b2Rfl9fjdY" opacity="1" fill="#ffffff" fill-opacity="1"></use><g><use xlink:href="#b2Rfl9fjdY" opacity="1" fill-opacity="0" stroke="#000000" stroke-width="1" stroke-opacity="0"></use></g></g><g><use xlink:href="#byT0VsGK4" opacity="1" fill="#ffffff" fill-opacity="1"></use><g><use xlink:href="#byT0VsGK4" opacity="1" fill-opacity="0" stroke="#000000" stroke-width="1" stroke-opacity="0"></use></g></g><g><use xlink:href="#c3VSv5Swah" opacity="1" fill="url(#gradientb1d2K13nGa)"></use><g><use xlink:href="#c3VSv5Swah" opacity="1" fill-opacity="0" stroke="#000000" stroke-width="1" stroke-opacity="0"></use></g></g><g><use xlink:href="#idMMxUP5g" opacity="1" fill="#c9ff99" fill-opacity="1"></use><g><use xlink:href="#idMMxUP5g" opacity="1" fill-opacity="0" stroke="#000000" stroke-width="1" stroke-opacity="0"></use></g></g><g><use xlink:href="#bhp2NOUiN" opacity="1" fill="#000000" fill-opacity="1"></use><g><use xlink:href="#bhp2NOUiN" opacity="1" fill-opacity="0" stroke="#000000" stroke-width="1" stroke-opacity="0"></use></g></g><g><use xlink:href="#aI0rzFVyV" opacity="1" fill="#000000" fill-opacity="1"></use><g><use xlink:href="#aI0rzFVyV" opacity="1" fill-opacity="0" stroke="#000000" stroke-width="1" stroke-opacity="0"></use></g></g><g><use xlink:href="#a1cWCb6PNn" opacity="1" fill="#000000" fill-opacity="1"></use><g><use xlink:href="#a1cWCb6PNn" opacity="1" fill-opacity="0" stroke="#000000" stroke-width="1" stroke-opacity="0"></use></g></g><g><use xlink:href="#aTsql9ygH" opacity="1" fill="url(#gradientbsnxPVEjk)"></use><g><use xlink:href="#aTsql9ygH" opacity="1" fill-opacity="0" stroke="#000000" stroke-width="1" stroke-opacity="0"></use></g></g><g><use xlink:href="#fVjDd5MlY" opacity="1" fill="#ffffff" fill-opacity="1"></use><g><use xlink:href="#fVjDd5MlY" opacity="1" fill-opacity="0" stroke="#000000" stroke-width="1" stroke-opacity="0"></use></g></g><g><use xlink:href="#h1KpM5oLk3" opacity="1" fill="#ffffff" fill-opacity="1"></use><g><use xlink:href="#h1KpM5oLk3" opacity="1" fill-opacity="0" stroke="#000000" stroke-width="1" stroke-opacity="0"></use></g></g><g><use xlink:href="#a3ZUhUwYB" opacity="1" fill="#000000" fill-opacity="1"></use><g><use xlink:href="#a3ZUhUwYB" opacity="1" fill-opacity="0" stroke="#000000" stroke-width="1" stroke-opacity="0"></use></g></g><g><use xlink:href="#a1U4DKjtZd" opacity="1" fill="#000000" fill-opacity="1"></use><g><use xlink:href="#a1U4DKjtZd" opacity="1" fill-opacity="0" stroke="#000000" stroke-width="1" stroke-opacity="0"></use></g></g><g><use xlink:href="#c4cp7AZU0Q" opacity="1" fill="#4d8af0" fill-opacity="1"></use><g><use xlink:href="#c4cp7AZU0Q" opacity="1" fill-opacity="0" stroke="#000000" stroke-width="1" stroke-opacity="0"></use></g></g><g><use xlink:href="#a1gGa7LeNL" opacity="1" fill="#4d8af0" fill-opacity="1"></use><g><use xlink:href="#a1gGa7LeNL" opacity="1" fill-opacity="0" stroke="#000000" stroke-width="1" stroke-opacity="0"></use></g></g><g><use xlink:href="#a2aavD1uLc" opacity="1" fill="#4d8af0" fill-opacity="1"></use><g><use xlink:href="#a2aavD1uLc" opacity="1" fill-opacity="0" stroke="#000000" stroke-width="1" stroke-opacity="0"></use></g></g><g><use xlink:href="#b3DcEk9q0S" opacity="1" fill="#4d8af0" fill-opacity="1"></use><g><use xlink:href="#b3DcEk9q0S" opacity="1" fill-opacity="0" stroke="#000000" stroke-width="1" stroke-opacity="0"></use></g></g><g><use xlink:href="#b40JiesO7" opacity="1" fill="#4d8af0" fill-opacity="1"></use><g><use xlink:href="#b40JiesO7" opacity="1" fill-opacity="0" stroke="#000000" stroke-width="1" stroke-opacity="0"></use></g></g><g><use xlink:href="#a1k3zAwOow" opacity="1" fill="#47e6b1" fill-opacity="1"></use><g><use xlink:href="#a1k3zAwOow" opacity="1" fill-opacity="0" stroke="#000000" stroke-width="1" stroke-opacity="0"></use></g></g><g><use xlink:href="#jyTRFaFOA" opacity="1" fill="#47e6b1" fill-opacity="1"></use><g><use xlink:href="#jyTRFaFOA" opacity="1" fill-opacity="0" stroke="#000000" stroke-width="1" stroke-opacity="0"></use></g></g><g><use xlink:href="#a9zSbOLYd" opacity="1" fill="#47e6b1" fill-opacity="1"></use><g><use xlink:href="#a9zSbOLYd" opacity="1" fill-opacity="0" stroke="#000000" stroke-width="1" stroke-opacity="0"></use></g></g><g><use xlink:href="#a28QAwsdRL" opacity="1" fill="#47e6b1" fill-opacity="1"></use><g><use xlink:href="#a28QAwsdRL" opacity="1" fill-opacity="0" stroke="#000000" stroke-width="1" stroke-opacity="0"></use></g></g><g><use xlink:href="#gAUH2ATK9" opacity="1" fill="#47e6b1" fill-opacity="1"></use><g><use xlink:href="#gAUH2ATK9" opacity="1" fill-opacity="0" stroke="#000000" stroke-width="1" stroke-opacity="0"></use></g></g><g><use xlink:href="#cpNxMgYVe" opacity="1" fill="#47e6b1" fill-opacity="1"></use><g><use xlink:href="#cpNxMgYVe" opacity="1" fill-opacity="0" stroke="#000000" stroke-width="1" stroke-opacity="0"></use></g></g><g><use xlink:href="#i1mBUyvtfY" opacity="1" fill="#f55f44" fill-opacity="1"></use><g><use xlink:href="#i1mBUyvtfY" opacity="1" fill-opacity="0" stroke="#000000" stroke-width="1" stroke-opacity="0"></use></g></g><g><use xlink:href="#hmfXHuY3k" opacity="1" fill="#f55f44" fill-opacity="1"></use><g><use xlink:href="#hmfXHuY3k" opacity="1" fill-opacity="0" stroke="#000000" stroke-width="1" stroke-opacity="0"></use></g></g><g><use xlink:href="#e5Ky4RhrGu" opacity="1" fill="#f55f44" fill-opacity="1"></use><g><use xlink:href="#e5Ky4RhrGu" opacity="1" fill-opacity="0" stroke="#000000" stroke-width="1" stroke-opacity="0"></use></g></g><g><use xlink:href="#c5s7ornMx" opacity="1" fill="#000000" fill-opacity="1"></use><g><use xlink:href="#c5s7ornMx" opacity="1" fill-opacity="0" stroke="#000000" stroke-width="1" stroke-opacity="0"></use></g></g><g><use xlink:href="#b6ifkha1MU" opacity="1" fill="#000000" fill-opacity="1"></use><g><use xlink:href="#b6ifkha1MU" opacity="1" fill-opacity="0" stroke="#000000" stroke-width="1" stroke-opacity="0"></use></g></g><g><use xlink:href="#a25TbhbNKp" opacity="1" fill="#000000" fill-opacity="1"></use><g><use xlink:href="#a25TbhbNKp" opacity="1" fill-opacity="0" stroke="#000000" stroke-width="1" stroke-opacity="0"></use></g></g><g><use xlink:href="#ak0BXTsjT" opacity="1" fill="#000000" fill-opacity="1"></use><g><use xlink:href="#ak0BXTsjT" opacity="1" fill-opacity="0" stroke="#000000" stroke-width="1" stroke-opacity="0"></use></g></g><g><use xlink:href="#kDNKj9BxD" opacity="1" fill="#000000" fill-opacity="1"></use><g><use xlink:href="#kDNKj9BxD" opacity="1" fill-opacity="0" stroke="#000000" stroke-width="1" stroke-opacity="0"></use></g></g><g><use xlink:href="#bBs37kOsG" opacity="1" fill="#000000" fill-opacity="1"></use><g><use xlink:href="#bBs37kOsG" opacity="1" fill-opacity="0" stroke="#000000" stroke-width="1" stroke-opacity="0"></use></g></g><g><g><use xlink:href="#f3dRXG9MXr" opacity="1" fill="#e6e6e6" fill-opacity="1"></use><g><use xlink:href="#f3dRXG9MXr" opacity="1" fill-opacity="0" stroke="#000000" stroke-width="1" stroke-opacity="0"></use></g></g><g><use xlink:href="#b12lZx6bth" opacity="1" fill="#ffffff" fill-opacity="1"></use><g><use xlink:href="#b12lZx6bth" opacity="1" fill-opacity="0" stroke="#000000" stroke-width="1" stroke-opacity="0"></use></g></g><g><use xlink:href="#a12jTzJUIJ" opacity="1" fill="#3f3d56" fill-opacity="1"></use><g><use xlink:href="#a12jTzJUIJ" opacity="1" fill-opacity="0" stroke="#000000" stroke-width="1" stroke-opacity="0"></use></g></g><g><use xlink:href="#c6Th0evqrk" opacity="1" fill="#3f3d56" fill-opacity="1"></use><g><use xlink:href="#c6Th0evqrk" opacity="1" fill-opacity="0" stroke="#000000" stroke-width="1" stroke-opacity="0"></use></g></g><g><use xlink:href="#d1WZskLCW6" opacity="1" fill="#0a7aa3" fill-opacity="1"></use><g><use xlink:href="#d1WZskLCW6" opacity="1" fill-opacity="0" stroke="#000000" stroke-width="1" stroke-opacity="0"></use></g></g><g><use xlink:href="#dniAYDnxb" opacity="1" fill="#000000" fill-opacity="1"></use><g><use xlink:href="#dniAYDnxb" opacity="1" fill-opacity="0" stroke="#000000" stroke-width="1" stroke-opacity="0"></use></g></g><g><use xlink:href="#bemtvL1BH" opacity="1" fill="#3f3d56" fill-opacity="1"></use><g><use xlink:href="#bemtvL1BH" opacity="1" fill-opacity="0" stroke="#000000" stroke-width="1" stroke-opacity="0"></use></g></g><g><use xlink:href="#b6JreuDkye" opacity="1" fill="#0a7aa3" fill-opacity="1"></use><g><use xlink:href="#b6JreuDkye" opacity="1" fill-opacity="0" stroke="#000000" stroke-width="1" stroke-opacity="0"></use></g></g><g><use xlink:href="#b2akpwVyo7" opacity="1" fill="#000000" fill-opacity="1"></use><g><use xlink:href="#b2akpwVyo7" opacity="1" fill-opacity="0" stroke="#000000" stroke-width="1" stroke-opacity="0"></use></g></g><g><use xlink:href="#aacZtypt8i" opacity="1" fill="#3f3d56" fill-opacity="1"></use><g><use xlink:href="#aacZtypt8i" opacity="1" fill-opacity="0" stroke="#000000" stroke-width="1" stroke-opacity="0"></use></g></g><g><use xlink:href="#eYACEP7XM" opacity="1" fill="#0a7aa3" fill-opacity="1"></use><g><use xlink:href="#eYACEP7XM" opacity="1" fill-opacity="0" stroke="#000000" stroke-width="1" stroke-opacity="0"></use></g></g><g><use xlink:href="#bsRQeM3Ue" opacity="1" fill="#000000" fill-opacity="1"></use><g><use xlink:href="#bsRQeM3Ue" opacity="1" fill-opacity="0" stroke="#000000" stroke-width="1" stroke-opacity="0"></use></g></g><g><use xlink:href="#o6oTrHnEGs" opacity="1" fill="#3f3d56" fill-opacity="1"></use><g><use xlink:href="#o6oTrHnEGs" opacity="1" fill-opacity="0" stroke="#000000" stroke-width="1" stroke-opacity="0"></use></g></g><g><use xlink:href="#h1IUbVuLtb" opacity="1" fill="#0a7aa3" fill-opacity="1"></use><g><use xlink:href="#h1IUbVuLtb" opacity="1" fill-opacity="0" stroke="#000000" stroke-width="1" stroke-opacity="0"></use></g></g><g><use xlink:href="#bpR3Yos" opacity="1" fill="#000000" fill-opacity="1"></use><g><use xlink:href="#bpR3Yos" opacity="1" fill-opacity="0" stroke="#000000" stroke-width="1" stroke-opacity="0"></use></g></g><g><use xlink:href="#d5S8U2XLb" opacity="1" fill="#3f3d56" fill-opacity="1"></use><g><use xlink:href="#d5S8U2XLb" opacity="1" fill-opacity="0" stroke="#000000" stroke-width="1" stroke-opacity="0"></use></g></g><g><use xlink:href="#efZA98wp9" opacity="1" fill="#0a7aa3" fill-opacity="1"></use><g><use xlink:href="#efZA98wp9" opacity="1" fill-opacity="0" stroke="#000000" stroke-width="1" stroke-opacity="0"></use></g></g><g><use xlink:href="#a1YdxJuBVG" opacity="1" fill="#000000" fill-opacity="1"></use><g><use xlink:href="#a1YdxJuBVG" opacity="1" fill-opacity="0" stroke="#000000" stroke-width="1" stroke-opacity="0"></use></g></g><g><use xlink:href="#a7Oltenm3" opacity="1" fill="#3f3d56" fill-opacity="1"></use><g><use xlink:href="#a7Oltenm3" opacity="1" fill-opacity="0" stroke="#000000" stroke-width="1" stroke-opacity="0"></use></g></g><g><use xlink:href="#clOQeQ0xA" opacity="1" fill="#0a7aa3" fill-opacity="1"></use><g><use xlink:href="#clOQeQ0xA" opacity="1" fill-opacity="0" stroke="#000000" stroke-width="1" stroke-opacity="0"></use></g></g><g><use xlink:href="#a9XyZlNQD" opacity="1" fill="#000000" fill-opacity="1"></use><g><use xlink:href="#a9XyZlNQD" opacity="1" fill-opacity="0" stroke="#000000" stroke-width="1" stroke-opacity="0"></use></g></g><g><use xlink:href="#cLBCatu3c" opacity="1" fill="#3f3d56" fill-opacity="1"></use><g><use xlink:href="#cLBCatu3c" opacity="1" fill-opacity="0" stroke="#000000" stroke-width="1" stroke-opacity="0"></use></g></g><g><use xlink:href="#a23Knvid71" opacity="1" fill="#0a7aa3" fill-opacity="1"></use><g><use xlink:href="#a23Knvid71" opacity="1" fill-opacity="0" stroke="#000000" stroke-width="1" stroke-opacity="0"></use></g></g><g><use xlink:href="#g4d21xwI3n" opacity="1" fill="#000000" fill-opacity="1"></use><g><use xlink:href="#g4d21xwI3n" opacity="1" fill-opacity="0" stroke="#000000" stroke-width="1" stroke-opacity="0"></use></g></g><g><use xlink:href="#b215Qn9TWX" opacity="1" fill="#3f3d56" fill-opacity="1"></use><g><use xlink:href="#b215Qn9TWX" opacity="1" fill-opacity="0" stroke="#000000" stroke-width="1" stroke-opacity="0"></use></g></g><g><use xlink:href="#c23AtYNcnI" opacity="1" fill="#0a7aa3" fill-opacity="1"></use><g><use xlink:href="#c23AtYNcnI" opacity="1" fill-opacity="0" stroke="#000000" stroke-width="1" stroke-opacity="0"></use></g></g><g><use xlink:href="#e2zB7GZBk" opacity="1" fill="#000000" fill-opacity="1"></use><g><use xlink:href="#e2zB7GZBk" opacity="1" fill-opacity="0" stroke="#000000" stroke-width="1" stroke-opacity="0"></use></g></g><g><use xlink:href="#dfM3ds9Lt" opacity="1" fill="#3f3d56" fill-opacity="1"></use><g><use xlink:href="#dfM3ds9Lt" opacity="1" fill-opacity="0" stroke="#000000" stroke-width="1" stroke-opacity="0"></use></g></g><g><use xlink:href="#e1ie9jM7B4" opacity="1" fill="#0a7aa3" fill-opacity="1"></use><g><use xlink:href="#e1ie9jM7B4" opacity="1" fill-opacity="0" stroke="#000000" stroke-width="1" stroke-opacity="0"></use></g></g><g><use xlink:href="#a2HgpWXMJK" opacity="1" fill="#000000" fill-opacity="1"></use><g><use xlink:href="#a2HgpWXMJK" opacity="1" fill-opacity="0" stroke="#000000" stroke-width="1" stroke-opacity="0"></use></g></g><g><use xlink:href="#f5erMLZUOZ" opacity="1" fill="#0a7aa3" fill-opacity="1"></use><g><use xlink:href="#f5erMLZUOZ" opacity="1" fill-opacity="0" stroke="#000000" stroke-width="1" stroke-opacity="0"></use></g></g><g><use xlink:href="#b23rRwMqu" opacity="1" fill="#000000" fill-opacity="1"></use><g><use xlink:href="#b23rRwMqu" opacity="1" fill-opacity="0" stroke="#000000" stroke-width="1" stroke-opacity="0"></use></g></g><g><use xlink:href="#beuf2knVC" opacity="1" fill="#0a7aa3" fill-opacity="1"></use><g><use xlink:href="#beuf2knVC" opacity="1" fill-opacity="0" stroke="#000000" stroke-width="1" stroke-opacity="0"></use></g></g><g><use xlink:href="#e1f6LKOgr6" opacity="1" fill="#000000" fill-opacity="1"></use><g><use xlink:href="#e1f6LKOgr6" opacity="1" fill-opacity="0" stroke="#000000" stroke-width="1" stroke-opacity="0"></use></g></g><g><use xlink:href="#eKTkDzbIG" opacity="1" fill="#0a7aa3" fill-opacity="1"></use><g><use xlink:href="#eKTkDzbIG" opacity="1" fill-opacity="0" stroke="#000000" stroke-width="1" stroke-opacity="0"></use></g></g><g><use xlink:href="#d2GJJSD7xR" opacity="1" fill="#000000" fill-opacity="1"></use><g><use xlink:href="#d2GJJSD7xR" opacity="1" fill-opacity="0" stroke="#000000" stroke-width="1" stroke-opacity="0"></use></g></g><g><use xlink:href="#a1Caej4MNm" opacity="1" fill="#0a7aa3" fill-opacity="1"></use><g><use xlink:href="#a1Caej4MNm" opacity="1" fill-opacity="0" stroke="#000000" stroke-width="1" stroke-opacity="0"></use></g></g><g><use xlink:href="#bhbMIckHf" opacity="1" fill="#000000" fill-opacity="1"></use><g><use xlink:href="#bhbMIckHf" opacity="1" fill-opacity="0" stroke="#000000" stroke-width="1" stroke-opacity="0"></use></g></g><g><use xlink:href="#f3vkk8MFp" opacity="1" fill="#0a7aa3" fill-opacity="1"></use><g><use xlink:href="#f3vkk8MFp" opacity="1" fill-opacity="0" stroke="#000000" stroke-width="1" stroke-opacity="0"></use></g></g><g><use xlink:href="#a1XZBKxft5" opacity="1" fill="#000000" fill-opacity="1"></use><g><use xlink:href="#a1XZBKxft5" opacity="1" fill-opacity="0" stroke="#000000" stroke-width="1" stroke-opacity="0"></use></g></g><g><use xlink:href="#evqJkLYK" opacity="1" fill="#0a7aa3" fill-opacity="1"></use><g><use xlink:href="#evqJkLYK" opacity="1" fill-opacity="0" stroke="#000000" stroke-width="1" stroke-opacity="0"></use></g></g><g><use xlink:href="#c3dR7X1Qq8" opacity="1" fill="#000000" fill-opacity="1"></use><g><use xlink:href="#c3dR7X1Qq8" opacity="1" fill-opacity="0" stroke="#000000" stroke-width="1" stroke-opacity="0"></use></g></g><g><use xlink:href="#h3LxDfxjGe" opacity="1" fill="#0a7aa3" fill-opacity="1"></use><g><use xlink:href="#h3LxDfxjGe" opacity="1" fill-opacity="0" stroke="#000000" stroke-width="1" stroke-opacity="0"></use></g></g><g><use xlink:href="#k4AGiip0pU" opacity="1" fill="#000000" fill-opacity="1"></use><g><use xlink:href="#k4AGiip0pU" opacity="1" fill-opacity="0" stroke="#000000" stroke-width="1" stroke-opacity="0"></use></g></g><g><use xlink:href="#c7z4VEOdl" opacity="1" fill="#000000" fill-opacity="1"></use><g><use xlink:href="#c7z4VEOdl" opacity="1" fill-opacity="0" stroke="#000000" stroke-width="1" stroke-opacity="0"></use></g></g><g><use xlink:href="#c1kzuMmxu" opacity="1" fill="#000000" fill-opacity="1"></use><g><use xlink:href="#c1kzuMmxu" opacity="1" fill-opacity="0" stroke="#000000" stroke-width="1" stroke-opacity="0"></use></g></g><g><use xlink:href="#g1F5gauHlG" opacity="1" fill="#000000" fill-opacity="1"></use><g><use xlink:href="#g1F5gauHlG" opacity="1" fill-opacity="0" stroke="#000000" stroke-width="1" stroke-opacity="0"></use></g></g><g><use xlink:href="#d14zd0QAUy" opacity="1" fill="#000000" fill-opacity="1"></use><g><use xlink:href="#d14zd0QAUy" opacity="1" fill-opacity="0" stroke="#000000" stroke-width="1" stroke-opacity="0"></use></g></g><g><use xlink:href="#b1VQvJA5MQ" opacity="1" fill="#000000" fill-opacity="1"></use><g><use xlink:href="#b1VQvJA5MQ" opacity="1" fill-opacity="0" stroke="#000000" stroke-width="1" stroke-opacity="0"></use></g></g><g><use xlink:href="#o8byHQNpe" opacity="1" fill="#000000" fill-opacity="1"></use><g><use xlink:href="#o8byHQNpe" opacity="1" fill-opacity="0" stroke="#000000" stroke-width="1" stroke-opacity="0"></use></g></g><g><use xlink:href="#k2uN5cJcb2" opacity="1" fill="#000000" fill-opacity="1"></use><g><use xlink:href="#k2uN5cJcb2" opacity="1" fill-opacity="0" stroke="#000000" stroke-width="1" stroke-opacity="0"></use></g></g></g></g></svg>